<?xml version="1.0" standalone="no"?>
<!DOCTYPE svg PUBLIC "-//W3C//DTD SVG 20010904//EN"
 "http://www.w3.org/TR/2001/REC-SVG-20010904/DTD/svg10.dtd">
<svg version="1.0" xmlns="http://www.w3.org/2000/svg"
 width="1612.000000pt" height="765.000000pt" viewBox="0 0 1612.000000 765.000000"
 preserveAspectRatio="xMidYMid meet">
<metadata>
Created by potrace 1.16, written by Peter Selinger 2001-2019
</metadata>
<g transform="translate(0.000000,765.000000) scale(0.100000,-0.100000)"
fill="#000000" stroke="none">
<path d="M2970 6805 l-845 -845 683 -683 684 -684 -901 -904 -900 -904 -520
520 -521 520 518 518 519 519 446 -449 446 -448 168 168 168 167 -613 612
-612 613 -845 -845 c-465 -465 -845 -849 -845 -855 0 -6 380 -390 845 -855
l846 -845 681 684 681 683 218 -218 219 -219 -682 -682 -683 -683 845 -845
c465 -465 849 -845 855 -845 13 0 1685 1672 1685 1685 0 5 -479 489 -1065
1075 l-1065 1065 220 220 220 220 150 -150 150 -150 165 165 165 165 -832 832
-833 833 520 520 520 520 520 -520 520 -520 -450 -450 -450 -450 163 -162 162
-163 610 610 c336 335 610 613 610 617 0 12 -1672 1688 -1684 1688 -6 0 -391
-380 -856 -845z m1373 -4603 l517 -517 -518 -518 -517 -517 -520 520 -520 520
515 515 c283 283 517 515 520 515 3 0 238 -233 523 -518z"/>
<path d="M4961 4526 l-995 -995 91 -98 c51 -54 123 -129 162 -168 l71 -70 150
150 150 150 685 -685 685 -685 845 845 c465 465 845 849 845 855 0 10 -1680
1695 -1690 1695 -3 0 -452 -447 -999 -994z m1522 -184 l517 -517 -520 -520
-520 -520 -520 520 -520 520 517 517 c285 285 520 518 523 518 3 0 238 -233
523 -518z"/>
<path d="M10424 4895 c-240 -43 -417 -171 -523 -375 -87 -168 -116 -314 -115
-580 0 -223 19 -339 79 -486 130 -324 424 -496 801 -470 503 35 786 417 760
1026 -11 273 -67 451 -191 615 -114 150 -276 243 -475 275 -87 13 -248 11
-336 -5z m315 -150 c262 -62 391 -322 391 -791 0 -426 -94 -671 -293 -769 -97
-47 -200 -63 -310 -47 -305 44 -447 300 -447 805 0 338 60 558 186 685 57 56
150 106 225 121 70 14 179 12 248 -4z"/>
<path d="M8070 4821 l0 -61 53 0 c111 0 169 -38 187 -124 8 -35 10 -259 8
-726 -3 -630 -4 -677 -21 -708 -25 -45 -85 -71 -164 -72 l-63 0 0 -60 0 -60
385 0 385 0 0 60 0 60 -60 0 c-75 0 -134 23 -163 64 -21 30 -22 39 -25 334
l-3 302 105 0 105 0 200 -332 c110 -183 216 -352 235 -375 69 -80 178 -113
374 -113 l102 0 0 60 0 60 -32 0 c-54 1 -111 34 -167 96 -29 33 -139 196 -245
364 l-193 304 55 23 c125 51 224 139 279 251 33 66 37 82 41 175 11 278 -108
438 -381 509 -77 20 -110 22 -539 25 l-458 4 0 -60z m798 -81 c134 -17 220
-74 263 -174 17 -39 23 -77 27 -160 6 -133 -9 -225 -48 -293 -62 -109 -146
-143 -367 -151 l-153 -5 0 397 0 396 103 0 c56 0 135 -5 175 -10z"/>
<path d="M11670 4822 l0 -59 76 -5 c84 -6 115 -22 149 -79 19 -33 20 -52 20
-734 0 -682 -1 -701 -20 -734 -34 -58 -67 -75 -151 -79 l-74 -4 0 -59 0 -59
459 0 c494 0 562 5 695 54 100 36 173 83 257 166 84 83 138 170 181 292 94
265 87 634 -16 888 -40 101 -87 171 -168 252 -61 61 -96 86 -170 122 -180 89
-184 90 -745 94 l-493 3 0 -59z m943 -105 c190 -63 321 -213 377 -433 33 -128
46 -312 32 -461 -22 -242 -84 -405 -196 -517 -115 -115 -243 -156 -491 -156
l-145 0 0 796 0 796 188 -5 c133 -3 201 -9 235 -20z"/>
<path d="M14232 4853 c-116 -324 -593 -1584 -615 -1627 -39 -73 -74 -96 -144
-96 l-53 0 0 -60 0 -60 320 0 320 0 0 60 0 60 -66 0 c-118 0 -172 47 -161 139
3 25 31 117 63 204 l57 157 340 -2 340 -3 58 -165 c69 -197 74 -243 30 -292
-27 -30 -34 -33 -105 -36 l-76 -4 0 -59 0 -59 365 0 365 0 0 60 0 60 -50 0
c-73 0 -114 20 -143 72 -13 23 -158 411 -322 861 l-298 817 -108 0 -107 0 -10
-27z m176 -598 c39 -110 93 -264 121 -342 l50 -143 -284 0 c-157 0 -285 3
-285 6 0 4 50 142 111 308 61 165 125 351 142 411 l32 111 22 -76 c12 -41 53
-165 91 -275z"/>
<path d="M15360 4820 l0 -60 58 0 c74 0 138 -31 164 -80 17 -33 18 -77 18
-735 0 -658 -1 -702 -18 -735 -26 -49 -90 -80 -164 -80 l-58 0 0 -60 0 -60
380 0 380 0 0 59 0 58 -76 5 c-85 6 -118 23 -146 79 -17 31 -18 87 -18 734 0
658 1 702 18 735 26 49 90 80 164 80 l58 0 0 60 0 60 -380 0 -380 0 0 -60z"/>
<path d="M1332 4167 c-177 -177 -322 -327 -322 -332 0 -13 642 -655 655 -655
13 0 655 642 655 655 0 13 -642 655 -655 655 -6 0 -155 -145 -333 -323z"/>
</g>
</svg>
